<svg width="33" height="33" viewBox="0 0 33 33" fill="none" xmlns="http://www.w3.org/2000/svg">
<path d="M32.5 18.4047V14.0953C30.2987 13.3127 28.908 13.0927 28.208 11.4033V11.402C27.5053 9.70733 28.3413 8.55667 29.3373 6.45933L26.2907 3.41267C24.2093 4.402 23.0467 5.246 21.348 4.542H21.3467C19.6547 3.84067 19.4333 2.44067 18.6547 0.25H14.3453C13.5693 2.43 13.3467 3.83933 11.6533 4.542H11.652C9.95733 5.246 8.80933 4.41133 6.70933 3.41267L3.66267 6.45933C4.656 8.55 5.496 9.70467 4.792 11.402C4.08933 13.0967 2.68 13.3193 0.5 14.0953V18.4047C2.676 19.178 4.08933 19.4033 4.792 21.0967C5.49867 22.806 4.64 23.9847 3.66267 26.0393L6.70933 29.0873C8.792 28.0967 9.95467 27.254 11.652 27.958H11.6533C13.3467 28.6593 13.568 30.0633 14.3453 32.25H18.6547C19.4307 30.0687 19.6547 28.6633 21.3573 27.954H21.3587C23.0413 27.2553 24.1853 28.0887 26.2893 29.0887L29.336 26.0407C28.344 23.9567 27.5027 22.7967 28.2053 21.0993C28.908 19.4047 30.3227 19.1793 32.5 18.4047V18.4047ZM16.5 21.5833C13.5547 21.5833 11.1667 19.1953 11.1667 16.25C11.1667 13.3047 13.5547 10.9167 16.5 10.9167C19.4453 10.9167 21.8333 13.3047 21.8333 16.25C21.8333 19.1953 19.4453 21.5833 16.5 21.5833Z" fill="black"/>
</svg>
